<svg width="23" height="18" viewBox="0 0 23 18" fill="none" xmlns="http://www.w3.org/2000/svg">
<path d="M1.5 4L6.69384 7.46256C6.99349 7.66232 7.14331 7.7622 7.3054 7.83296C7.44927 7.89577 7.60003 7.94142 7.75458 7.96896C7.92869 8 8.10876 8 8.46888 8H14.5311C14.8912 8 15.0713 8 15.2454 7.96896C15.4 7.94142 15.5507 7.89577 15.6946 7.83296C15.8567 7.76221 16.0065 7.66232 16.3062 7.46256L21.5 4M6.3 17H16.7C18.3802 17 19.2202 17 19.862 16.673C20.4265 16.3854 20.8854 15.9265 21.173 15.362C21.5 14.7202 21.5 13.8802 21.5 12.2V5.8C21.5 4.11984 21.5 3.27976 21.173 2.63803C20.8854 2.07354 20.4265 1.6146 19.862 1.32698C19.2202 1 18.3802 1 16.7 1H6.3C4.61984 1 3.77976 1 3.13803 1.32698C2.57354 1.6146 2.1146 2.07354 1.82698 2.63803C1.5 3.27976 1.5 4.11984 1.5 5.8V12.2C1.5 13.8802 1.5 14.7202 1.82698 15.362C2.1146 15.9265 2.57354 16.3854 3.13803 16.673C3.77976 17 4.61984 17 6.3 17Z" stroke="#071B55" stroke-width="2" stroke-linecap="round" stroke-linejoin="round"/>
</svg>
